<svg width="28" height="29" viewBox="0 0 28 29" fill="none" xmlns="http://www.w3.org/2000/svg">
<path d="M13.5953 4.8125C11.0198 4.8125 8.54981 5.83314 6.72866 7.6499C4.9075 9.46666 3.88438 11.9307 3.88438 14.5C3.88438 17.0693 4.9075 19.5333 6.72866 21.3501C8.54981 23.1669 11.0198 24.1875 13.5953 24.1875C16.1708 24.1875 18.6409 23.1669 20.462 21.3501C22.2832 19.5333 23.3063 17.0693 23.3063 14.5C23.3063 11.9307 22.2832 9.46666 20.462 7.6499C18.6409 5.83314 16.1708 4.8125 13.5953 4.8125ZM27.1907 14.5C27.1907 18.097 25.7583 21.5467 23.2087 24.0901C20.6591 26.6336 17.201 28.0625 13.5953 28.0625C9.98963 28.0625 6.5316 26.6336 3.98198 24.0901C1.43236 21.5467 0 18.097 0 14.5C0 10.903 1.43236 7.45333 3.98198 4.90986C6.5316 2.3664 9.98963 0.9375 13.5953 0.9375C17.201 0.9375 20.6591 2.3664 23.2087 4.90986C25.7583 7.45333 27.1907 10.903 27.1907 14.5Z" fill="#FF9900"/>
</svg>
