<svg width="25" height="25" viewBox="0 0 25 25" fill="none" xmlns="http://www.w3.org/2000/svg">
<path d="M19.972 0.859135L13 7.83151C10.6761 5.50838 8.35149 3.18301 6.02724 0.859135C3.33849 -1.82962 -0.829257 2.33963 1.85724 5.02913C4.18187 7.35151 6.50724 9.67726 8.82924 12.0011C6.50618 14.3261 4.18218 16.6501 1.85724 18.9731C-0.829257 21.6611 3.33887 25.8293 6.02724 23.1431C8.35112 20.8185 10.6757 18.4935 12.9996 16.1704L19.9716 23.1431C22.6604 25.8311 26.8292 21.6615 24.1416 18.9731C21.817 16.6485 19.4931 14.3246 17.1677 12.0004C19.4927 9.67576 21.8166 7.35113 24.1416 5.02688C26.8296 2.33963 22.6607 -1.82962 19.9716 0.860635" fill="#FF9900"/>
</svg>
